# ProBuilder 5.0.6
# https://unity3d.com/unity/features/worldbuilding/probuilder
# 11-05-2023 05:52:01

mtllib ./Dmerit.mtl
o Dmerit

g PolyShape
v 0.7417078 0.3449993 -1.768286
v -0.8495343 0.3449993 -1.723798
v -1.969817 0.3449997 -0.334873
v -0.06758714 0.3450007 1.768285
v 1.969818 0.3449997 -0.2548907
v -1.969817 -0.3450003 -0.3348727
v -0.8495343 -0.3450007 -1.723798
v -0.06758714 -0.3449993 1.768285
v 0.7417078 -0.3450007 -1.768285
v 1.969818 -0.3450003 -0.2548904

vt -0.7417078 -1.768285
vt 0.8495343 -1.723798
vt 1.969817 -0.3348728
vt 0.06758714 1.768285
vt -1.969818 -0.2548905
vt -1.969817 -0.3348729
vt -0.8495343 -1.723798
vt -0.06758714 1.768285
vt 0.7417078 -1.768285
vt 1.969818 -0.2548906
vt 0.9760269 -0.3449999
vt -0.8083913 -0.3450004
vt 0.9760267 0.3450001
vt -0.8083915 0.3449996
vt 1.266104 -0.3449996
vt -1.569694 -0.3450006
vt 1.266104 0.3450004
vt -1.569694 0.3449994
vt 0.8010281 -0.3450001
vt -0.7908357 -0.3450001
vt 0.8010281 0.3449998
vt -0.7908357 0.3449998
vt 0.9057006 -0.3450004
vt -1.043304 -0.3449999
vt 0.9057008 0.3449996
vt -1.043304 0.3450001
vt 1.577346 -0.3450006
vt -1.293936 -0.3449996
vt 1.577347 0.3449994
vt -1.293936 0.3450004

vn 3.728285E-08 1 -3.959595E-07
vn 6.436703E-08 -1 3.952311E-07
vn -0.7783632 -2.169313E-07 -0.6278143
vn -0.7416458 2.317815E-07 0.6707917
vn -0.02794664 -3.453992E-07 -0.9996094
vn 0.7764963 -2.177286E-07 -0.6301219
vn 0.7046245 2.451843E-07 0.7095804

usemtl Default
f 4/4/1 2/2/1 3/3/1
f 4/4/1 1/1/1 2/2/1
f 5/5/1 1/1/1 4/4/1
f 8/8/2 9/9/2 10/10/2
f 7/7/2 9/9/2 8/8/2
f 6/6/2 7/7/2 8/8/2
f 2/14/3 7/12/3 6/11/3
f 6/11/3 3/13/3 2/14/3
f 3/18/4 6/16/4 8/15/4
f 8/15/4 4/17/4 3/18/4
f 1/22/5 9/20/5 7/19/5
f 7/19/5 2/21/5 1/22/5
f 5/26/6 10/24/6 9/23/6
f 9/23/6 1/25/6 5/26/6
f 4/30/7 8/28/7 10/27/7
f 10/27/7 5/29/7 4/30/7

